<?xml version="1.0" encoding="utf-8"?>
<!-- Generator: Adobe Illustrator 19.1.0, SVG Export Plug-In . SVG Version: 6.00 Build 0)  -->
<svg version="1.1" id="Layer_1" xmlns="http://www.w3.org/2000/svg" xmlns:xlink="http://www.w3.org/1999/xlink" x="0px" y="0px"
	 viewBox="0 0 168 500" style="enable-background:new 0 0 168 500;" xml:space="preserve">
<style type="text/css">
	.st0{fill:#DB511A;}
</style>
<g>
	<path d="M36.5,407.5v-13l95.8-37.2v13.4l-26.7,10.1v41l26.7,10.1v12.9L36.5,407.5z M94.8,384.6l-44.4,16.9l44.4,16.6V384.6z"/>
	<path d="M36.5,320.9v-13l95.8-37.2v13.4l-26.7,10.1v41l26.7,10.1v12.9L36.5,320.9z M94.8,297.9l-44.4,16.9l44.4,16.6V297.9z"/>
	<path d="M104.9,255c6.7-1.1,11.6-3.7,14.6-8c3-4.2,4.5-10.6,4.5-19c0-4.2-0.5-7.7-1.4-10.5c-0.9-2.8-2.2-5.1-3.7-6.8
		c-1.6-1.7-3.4-2.9-5.5-3.6c-2.1-0.7-4.3-1.1-6.6-1.1c-1.9,0-3.7,0.2-5.4,0.7c-1.7,0.4-3.3,1.3-4.8,2.6c-1.4,1.3-2.7,3.1-3.8,5.4
		c-1.1,2.3-1.9,5.2-2.5,8.8l-2.1,12.1c-0.8,4.7-1.9,8.9-3.2,12.6c-1.3,3.7-3.1,6.8-5.2,9.3c-2.1,2.5-4.7,4.5-7.8,5.8
		c-3.1,1.3-6.9,1.9-11.4,1.9c-4.4,0-8.2-0.9-11.5-2.8c-3.3-1.8-6.1-4.3-8.3-7.4c-2.2-3.1-3.9-6.8-5-11.1c-1.1-4.3-1.6-8.9-1.6-14
		c0-6.3,0.7-11.6,2.1-15.9c1.4-4.2,3.2-7.7,5.6-10.4c2.3-2.7,5-4.7,8-6.1c3-1.4,6.1-2.4,9.2-3.2l2.3,11.5c-2.7,0.7-5.1,1.6-7.2,2.8
		c-2.1,1.1-3.8,2.6-5.2,4.4c-1.4,1.8-2.4,4.1-3.2,6.8c-0.7,2.7-1.1,5.9-1.1,9.8c0,4.4,0.4,8,1.2,11c0.8,3,1.9,5.3,3.3,7.1
		c1.4,1.8,3,3.1,5,3.8c1.9,0.8,3.9,1.1,6.1,1.1c2.3,0,4.3-0.3,6.1-0.9c1.7-0.6,3.2-1.6,4.5-3c1.2-1.4,2.3-3.2,3.2-5.4
		c0.9-2.2,1.6-5,2.3-8.3l2.4-13.4c1.9-9.9,5-17.2,9.3-21.9c4.3-4.7,10.7-7,19.1-7c3.9,0,7.5,0.7,10.8,2.2c3.4,1.5,6.3,3.7,8.8,6.6
		c2.5,2.9,4.5,6.6,5.9,11c1.4,4.4,2.1,9.5,2.1,15.5c0,5.6-0.6,10.8-1.7,15.4c-1.1,4.6-2.9,8.6-5.3,12c-2.4,3.4-5.5,6.1-9.3,8.2
		c-3.8,2.1-8.3,3.3-13.5,3.8V255z"/>
	<path class="st0" d="M122.6,172.9c-3-3.4-6.2-7.1-9.6-11c-3.4-3.9-6.9-7.9-10.4-11.9c-3.7-4.3-7.2-8-10.2-11.3
		c-3.1-3.2-6-5.9-8.9-8c-2.9-2.1-5.8-3.8-8.7-4.8c-2.9-1.1-6.1-1.6-9.5-1.6c-5.6,0-9.9,1.5-12.9,4.6c-3,3-4.5,7.3-4.5,12.7
		c0,3.3,0.4,6.1,1.1,8.4c0.7,2.3,1.8,4.3,3.2,5.9c1.4,1.6,3.1,2.9,5.2,4c2.1,1,4.5,1.9,7.2,2.8l-1.7,11.1c-3.2-0.8-6.3-1.9-9.4-3.4
		c-3-1.4-5.8-3.4-8.2-5.9c-2.4-2.5-4.3-5.6-5.8-9.4c-1.5-3.8-2.2-8.4-2.2-13.8c0-4.7,0.7-8.9,2-12.6s3.2-6.7,5.6-9.2
		c2.4-2.5,5.2-4.4,8.5-5.7c3.3-1.3,7-2,11-2c4,0,7.8,0.6,11.3,1.7c3.5,1.1,6.9,2.8,10.3,5.2c3.4,2.3,6.9,5.3,10.5,8.9
		c3.6,3.6,7.5,7.8,11.7,12.7c2.2,2.6,4.5,5.3,6.8,8c2.3,2.7,4.6,5.4,6.9,8v-45.3l10.7,1.7v60.4H122.6z"/>
	<path class="st0" d="M52.6,68.6l12.9,21.3L56.7,95L39.6,67.4V56.5h92.7v12.1H52.6z"/>
</g>
</svg>
