<?xml version="1.0" encoding="utf-8"?>
<!-- Generator: Adobe Illustrator 19.1.0, SVG Export Plug-In . SVG Version: 6.00 Build 0)  -->
<svg version="1.1" id="Layer_1" xmlns="http://www.w3.org/2000/svg" xmlns:xlink="http://www.w3.org/1999/xlink" x="0px" y="0px"
	 viewBox="0 0 400 400" style="enable-background:new 0 0 400 400;" xml:space="preserve">
<style type="text/css">
	.st0{fill:#E36039;}
	.st1{fill:#FFFFFF;}
</style>
<g>
	<polygon class="st0" points="94.1,155.4 122,127.5 93.3,98.8 93.2,155.8 53.4,195.5 94,195.6 	"/>
	<polygon class="st0" points="121.5,273.1 94,245.6 94,204.2 52.8,204.2 93.2,244.6 93.1,301.5 	"/>
	<polygon class="st0" points="273,121.9 301.8,93.1 245,93 204.9,52.9 204.8,93.4 244.9,93.4 	"/>
	<polygon class="st0" points="279.1,128 306.6,155.8 306.6,195.7 347.5,195.8 307.7,155.9 307.8,99.3 	"/>
	<polygon class="st0" points="244.7,307 204.7,306.9 204.7,347.6 244.8,307.5 301.8,307.6 273,278.7 	"/>
	<polygon class="st0" points="306.6,204.4 306.5,245.2 279.1,272.6 307.6,301.2 307.7,244.7 348.1,204.4 	"/>
	<polygon class="st0" points="99.7,92.9 128.1,121.4 156.2,93.4 196.2,93.4 196.2,52.9 156.1,93 	"/>
	<polygon class="st0" points="127.6,279.2 99.4,307.4 156,307.5 196,347.6 196,306.9 155.2,306.9 	"/>
</g>
<g>
	<path class="st0" d="M159.1,204.3l-32.4,0c0.9,17.3,7.7,33.1,18.5,45.2l23.1-23.1C163.3,220.2,159.9,212.6,159.1,204.3z"/>
	<path class="st0" d="M249.2,145.6c-12-10.7-27.4-17.4-44.4-18.5l0,32.9c7.9,1,15.1,4.3,20.9,9.1L249.2,145.6z"/>
	<path class="st0" d="M255.3,151.7l-23.6,23.6c4.5,5.8,7.4,12.7,8.3,20.3l33.7,0C272.6,178.9,265.9,163.6,255.3,151.7z"/>
	<path class="st0" d="M168.5,174.1l-22.8-22.9c-10.8,11.9-17.7,27.3-18.8,44.4l32.4,0C160.1,187.5,163.5,180.1,168.5,174.1z"/>
	<path class="st0" d="M204.7,240.6l0,33.4c17.2-1,32.8-7.9,44.8-18.8l-23.8-23.8C219.9,236.3,212.7,239.6,204.7,240.6z"/>
	<path class="st0" d="M240.1,204.3c-0.8,7.8-3.8,15-8.4,20.9l23.9,23.9c10.6-12.1,17.3-27.6,18.2-44.8L240.1,204.3z"/>
	<path class="st0" d="M174.7,168.1c6-4.7,13.4-7.7,21.4-8.4l0-32.7c-17,0.9-32.4,7.6-44.4,18.1L174.7,168.1z"/>
	<path class="st0" d="M151.4,255.5c12,10.7,27.6,17.5,44.7,18.5l0-33.2c-8.1-0.7-15.4-3.8-21.5-8.5L151.4,255.5z"/>
</g>
<g>
	<path class="st1" d="M125.4,204.8L112.1,236l32.9,13.6l0.1-0.1c-10.8-12.2-17.6-27.4-18.4-44.7L125.4,204.8z"/>
	<path class="st1" d="M112.8,163.1l13.1,32.5l1,0c1.1-17,8-32.4,18.8-44.4l-1-1L112.8,163.1z"/>
	<path class="st1" d="M150.5,256.4l12.4,30.6l33.2-12.8l0-0.3c-16.8-1.1-32.9-7.9-44.7-18.5L150.5,256.4z"/>
	<path class="st1" d="M204.8,125.9l0,1.2c17,1.1,32.4,7.8,44.4,18.5l0.4-0.4l-13-32.1L204.8,125.9z"/>
	<path class="st1" d="M274.2,195.7l13.2-31l-31.6-13.4l-0.5,0.5c10.5,11.9,17.3,27.1,18.4,44L274.2,195.7z"/>
	<path class="st1" d="M204.7,274.7l30.4,12.9l14.5-32.3l-0.2-0.2c-11.9,10.4-28,17.7-44.8,18.8L204.7,274.7z"/>
	<path class="st1" d="M255.6,249.1l0.3,0.3l30.8-12.4l-12.5-32.2h-0.5C272.7,221.7,266.1,237.1,255.6,249.1z"/>
	<path class="st1" d="M150.9,144.2l0.9,0.9c12-10.5,27.4-17.1,44.4-18.1l0-1.2l-31.8-13.5L150.9,144.2z"/>
</g>
<g>
	<g>
		<polygon points="112.1,235.4 125.4,204.2 94,204.2 94,245.6 121.5,273.1 145.2,249.5 		"/>
		<polygon points="150.5,256.4 127.6,279.2 155.2,306.9 196,306.9 196.1,273.6 162.8,287 		"/>
		<polygon points="249.6,145.2 273,121.9 244.9,93.4 204.8,93.4 204.8,125.9 236.7,113.1 		"/>
		<polygon points="112.8,163.1 144.6,150.2 122,127.5 94.1,155.4 94,195.6 125.9,195.6 		"/>
		<polygon points="128.1,121.4 150.9,144.2 164.4,112.4 196.2,125.9 196.2,93.4 156.2,93.4 		"/>
		<polygon points="286.7,237 255.9,249.4 279.1,272.6 306.5,245.2 306.6,204.4 273.5,204.3 		"/>
		<polygon points="279.1,128 255.8,151.3 287.4,164.6 274.2,195.7 306.6,195.7 306.6,155.8 		"/>
		<polygon points="235.1,287.7 204.7,274.7 204.7,306.9 244.7,307 273,278.7 249.1,254.8 		"/>
	</g>
</g>
</svg>
